<svg className="svg-cart " xmlns="http://www.w3.org/2000/svg" viewBox="0 0 45 36" stroke="none">
			<path d="M12.2 19.4a1 1 0 0 1-1-.8L7.9 4.5A2 2 0 0 0 6 3H1.8c-.6 0-1-.4-1-1s.4-1 1-1H6a4 4 0 0 1 3.9 3.1l3.3 14.2c.1.5-.2 1.1-.7 1.2l-.3-.1z"></path>
			<path className="svg-cart-main-outer bg-shadow" d="M41 5.7c.9 1.2 1.2 2.6.9 4.1l-2.6 11.4a4.7 4.7 0 0 1-4.7 3.7H16.4a4.8 4.8 0 0 1-4.7-3.7L9.1 9.8a5 5 0 0 1 .9-4.1 5 5 0 0 1 3.8-1.8h23.5c1.4 0 2.8.7 3.7 1.8zm-1 3.7a3 3 0 0 0-.5-2.4 2.7 2.7 0 0 0-2.2-1.1H13.8c-.9 0-1.6.4-2.2 1.1-.5.7-.7 1.5-.5 2.4l2.7 11.4a2.8 2.8 0 0 0 2.7 2.2h18.1c1.3 0 2.4-.9 2.7-2.2L40 9.4z"></path>
			<path className="svg-cart-wheel-outer bg-shadow" d="M31.2 26.2c2.5 0 4.5 2 4.5 4.5s-2 4.6-4.5 4.6-4.6-2-4.6-4.6 2.1-4.5 4.6-4.5zm2.5 4.5c0-1.4-1.1-2.5-2.5-2.5s-2.5 1.1-2.5 2.5 1.1 2.5 2.5 2.5 2.5-1.1 2.5-2.5z"></path>
			<path className="svg-cart-wheel-outer bg-shadow" d="M19.7 26.2c2.5 0 4.5 2 4.5 4.5s-2 4.6-4.5 4.6-4.6-2-4.6-4.6 2.1-4.5 4.6-4.5zm2.5 4.5c0-1.4-1.1-2.5-2.5-2.5s-2.5 1.1-2.5 2.5 1.1 2.5 2.5 2.5 2.5-1.1 2.5-2.5z"></path> 
			<g className="svg-cart-main" fill="#FFFFFF">
				<path d="M39.4 7c.6.7.8 1.5.6 2.4l-2.6 11.4a2.8 2.8 0 0 1-2.7 2.2H16.4c-1.3 0-2.4-.9-2.7-2.2L11.1 9.4a3 3 0 0 1 .5-2.4c.5-.7 1.3-1.1 2.2-1.1h23.5c.8 0 1.6.4 2.1 1.1z"></path>
				<circle cx="31.2" cy="30.7" r="2.5"></circle>
				<circle cx="19.7" cy="30.7" r="2.5"></circle>
			</g>
		</svg>