<svg className="svg-controller bg-shadow " viewBox="0 0 40 27" fill="currentColor" stroke="currentColor"
    stroke-linecap="round" stroke-width="1.5">
    <path className="svg-controller-main"
        d="M8.984 2.186c2.5-1 19-1.4 22.5 0 5 2 7.5 17 7.5 20s-2.5 3.5-5.5 3.5-6.5-7-8-7h-12.5c-.5 0-5 7.6-8 7-2.5-.5-4-2.5-4-5.5s5.5-17 8-18Z"
        fill="#fff"></path>
    <path data-color-interval=""
        d="M28.701 7.267c-.585.586-1.237.884-2.121 0a1.5 1.5 0 0 1 0-2.121c.586-.586 1.414-.707 2.121 0a1.5 1.5 0 0 1 0 2.12Z"
        fill="currentColor" stroke="none"></path>
    <path data-color-interval=""
        d="M32.236 10.803c-.585.586-1.237.884-2.12 0a1.5 1.5 0 0 1 0-2.121c.585-.586 1.413-.707 2.12 0a1.5 1.5 0 0 1 0 2.121Z"
        fill="currentColor" stroke="none"></path>
    <path data-color-interval=""
        d="M28.701 14.338c-.585.586-1.237.884-2.121 0a1.5 1.5 0 0 1 0-2.121c.586-.586 1.414-.707 2.121 0a1.5 1.5 0 0 1 0 2.121Z"
        fill="currentColor" stroke="none"></path>
    <path data-color-interval=""
        d="M25.166 10.803c-.586.586-1.237.884-2.121 0a1.5 1.5 0 0 1 0-2.121c.586-.586 1.414-.707 2.121 0a1.5 1.5 0 0 1 0 2.121Z"
        fill="currentColor" stroke="none"></path>
    <path d="M8.984 9.742c1.5.5 6.5.5 8 0" fill="none"></path>
    <path d="M12.797 13.93c.5-1.5.5-6.5 0-8" fill="none"></path>
</svg>