<?xml version="1.0" encoding="UTF-8"?>
<svg viewBox="0 0 148 28" fill="currentColor" xmlns="http://www.w3.org/2000/svg">
  <path d="M6.7.4 3.5 17.7a13 13 0 0 0-3.4-.6L0 20c.5 0 1.9.1 3 .5l-1.4 7h2.6l1-5.6c1.1.5 2.7 1 4.6 1l.9 4.6H17L11.8.4H6.7ZM5.8 19l1.6-8.6L9.2 20a7 7 0 0 1-3.4-1Z"/>
  <path d="M25.1 28c4.5 0 7.4-1.7 7.4-7.5V.5h-2.7v20c0 3.1-.6 4.2-2.8 4.2-2.2 0-2.7-1-2.7-4.1V.4h-6.6v20.1c0 5.9 3 7.5 7.4 7.5Z"/>
  <path d="M40.9 17.1h.6l2.4 10.5h6.6l-2.8-12.1c1.7-1.4 2.7-3.6 2.7-6.7 0-7-3.5-8.4-8-8.4h-7.8v27.2h6.3V17.1Zm0-14.3h1.3c1.2 0 1.8.7 1.8 5.7 0 4.8-.5 5.8-1.8 5.8h-1.3V2.8Z"/>
  <path d="M52.7 27.6h2.6l1-5.6c1 .5 2.6 1 4.6 1l.8 4.6h6.5L63 .4h-5.1l-3.3 17.3a13 13 0 0 0-3.3-.6l-.1 3c.5 0 1.8.1 2.9.5l-1.3 7Zm5.7-17.3 1.9 9.8a7.5 7.5 0 0 1-3.4-1.1l1.5-8.7Z"/>
  <path d="M88.3 13.3c2.8-.7 4.8-2.5 4.8-6.1C93.1 1 89.6.3 84.8.3h-6.7v27.2h6.7c4.8 0 8.5-1.7 8.5-7.4 0-4.5-2-6.2-5-6.8Zm-4-10.6h.5c1.6 0 2 .5 2 5 0 4.3-.4 4.7-2 4.7h-.6V2.7Zm.6 22.4h-.7V14.6h.7c1.4 0 2 .6 2 5.2 0 5-.4 5.3-2 5.3Z"/>
  <path d="M102.9 0c-5.5 0-8.3 3.4-8.3 14 0 10.4 2.8 13.8 8.3 13.8 5.4 0 8.2-3.4 8.2-13.9S108.3 0 103 0Zm0 25.6c-1.6 0-1.7-1-1.7-11.7 0-10.8 0-11.7 1.7-11.7 1.5 0 1.7 1 1.7 11.7 0 10.8-.1 11.7-1.7 11.7Z"/>
  <path d="M128.6 8.7c0-7-3.5-8.4-8-8.4H113v27.2h6.3V17h.6l2.3 10.5h6.6L126 15.4c1.7-1.4 2.6-3.5 2.6-6.7Zm-8.2 5.5h-1.2V2.7h1.2c1.3 0 1.9.7 1.9 5.7 0 4.8-.6 5.8-1.9 5.8Z"/>
  <path d="M140.7 27.6h6.4L141.8.3h-5.1l-3.2 17.3a13 13 0 0 0-3.4-.6v3c.4 0 1.8.1 2.8.6l-1.3 7h2.6l1-5.7c1.1.5 2.7 1 4.6 1l.9 4.7Zm-5-8.8 1.7-8.6 1.8 9.8a7.2 7.2 0 0 1-3.4-1.2Z"/>
</svg>
