<svg class="svg-story svg-story--ingredients u-perform tablet-down-only is-animated" xmlns="http://www.w3.org/2000/svg" viewBox="12 0 350 345" fill="none" aria-labelledby="story-ingredients" data-animate="">
  <path d="M286.6 22h-.5a3.2 3.2 0 0 1-2.3-1c-.3-.3-.5-.7-.7-1.2a4 4 0 0 1-.3-1.5v-3a4 4 0 0 1 1-2.7 3.2 3.2 0 0 1 2.3-1h.5v-.9h-.5l-1.6.3a4.3 4.3 0 0 0-2.3 2.4c-.2.6-.3 1.2-.3 1.9v3a4.7 4.7 0 0 0 1.3 3.4c.3.4.8.7 1.3.9.5.2 1 .3 1.6.3h.5v-1Zm7.6-1v-3c0-.3 0-.5-.2-.7a1 1 0 0 0-.5-.3V17l.8-.7.2-1V15a2.4 2.4 0 0 0-.6-1.6l-.8-.5-1.1-.2h-3V21h1v-3.5h2.6l.5.2.1.5V21h1Zm-4.2-4.4v-3h1.8c.6 0 1 0 1.3.3.3.3.4.6.4 1v.3c0 .4-.1.8-.4 1-.3.3-.7.4-1.3.4H290Zm7-4V21h5.2v-1H298v-2.7h4v-1h-4v-2.8h4.1v-.9h-5Zm7.2 0 2.3 8.4h2l2.4-8.4h-1.1l-2.2 8h-.2l-2.2-8h-1Zm8.7 0V21h5.2v-1h-4.2v-2.7h4v-1h-4v-2.8h4.1v-.9h-5ZM326 21v-3c0-.3 0-.5-.2-.7a1 1 0 0 0-.5-.3V17l.8-.7.2-1V15a2.4 2.4 0 0 0-.6-1.6l-.8-.5-1.1-.2h-3V21h1v-3.5h2.6l.5.2.1.5V21h1Zm-4.2-4.4v-3h1.8c.6 0 1 0 1.3.3.3.3.4.6.4 1v.3c0 .4-.1.8-.4 1-.3.3-.7.4-1.3.4h-1.8Zm11.5-1.6v.5h1V15a2.4 2.4 0 0 0-1.7-2.4 3.7 3.7 0 0 0-3.2.5c-.3.2-.5.4-.6.7a2 2 0 0 0-.2.9v.1c0 .4 0 .7.2 1l.5.6.9.5 1.1.2c.8.1 1.3.3 1.6.5.3.3.5.6.5 1v.1c0 .5-.2.8-.5 1.1-.3.3-.8.4-1.4.4-.7 0-1.3-.1-1.7-.5-.4-.4-.6-1-.6-1.7v-.3h-1v.4l.2 1.2a2.8 2.8 0 0 0 1.7 1.6 4 4 0 0 0 2.7 0c.3 0 .6-.2.9-.4l.5-.8.2-1v-.1a2 2 0 0 0-.6-1.5c-.4-.4-1-.7-2-.8l-1-.2-.6-.3-.5-.4-.1-.6v-.1l.1-.6.4-.4.6-.2.6-.1h.8l.6.4.5.5.1.7Zm3.5-2.4V21h5.1v-1h-4.1v-2.7h4v-1h-4v-2.8h4v-.9h-5Zm8.7 4.8v1h3.6v-1h-3.6ZM280.7 29v1.8c0 1.2.3 2 .8 2.6.5.6 1.2.9 2.2.9.9 0 1.6-.3 2.1-1 .6-.5.8-1.3.8-2.5V29c0-1.1-.2-2-.8-2.6-.5-.6-1.2-.9-2.1-.9-1 0-1.7.3-2.2 1-.5.5-.8 1.4-.8 2.5Zm3 4.3c-.7 0-1.2-.2-1.5-.6-.3-.5-.5-1.1-.5-2V29c0-.7.2-1.3.5-1.8s.8-.7 1.5-.7c.6 0 1.1.2 1.4.7.3.5.5 1 .5 1.8v1.8c0 .8-.2 1.4-.5 1.9-.3.4-.8.6-1.4.6Zm9.9-5.2v.5h1V28a2.4 2.4 0 0 0-1.7-2.4 3.7 3.7 0 0 0-3.3.5l-.5.7a2 2 0 0 0-.3.9v.1l.2 1 .6.6c.2.2.5.4.9.5l1.1.2c.7.1 1.3.3 1.6.5.3.3.5.6.5 1v.1c0 .5-.2.8-.5 1.1-.3.3-.8.4-1.4.4-.7 0-1.3-.1-1.7-.5-.4-.4-.6-1-.6-1.7v-.3h-1v.4c0 .4 0 .8.2 1.2a2.8 2.8 0 0 0 1.7 1.6 4 4 0 0 0 2.7 0c.3 0 .6-.2.8-.4.3-.2.5-.5.6-.8l.2-1v-.1a2 2 0 0 0-.6-1.5c-.5-.4-1.1-.7-2-.8l-1-.2c-.3 0-.5-.2-.7-.3l-.4-.4-.1-.6v-.1l.1-.6.4-.4.5-.2.7-.1h.8l.6.4.4.5.2.7Zm2.8-2.4V34h1v-8h.1l1.2 8h1.8l1.1-8h.2v8h.9v-8.4h-2l-1 8h-.2l-1.1-8h-2Zm8.2 3.3v1.8c0 1.2.2 2 .7 2.6.6.6 1.3.9 2.2.9 1 0 1.7-.3 2.2-1 .5-.5.8-1.3.8-2.5V29c0-1.1-.3-2-.8-2.6-.5-.6-1.3-.9-2.2-.9-1 0-1.6.3-2.2 1-.5.5-.7 1.4-.7 2.5Zm3 4.3c-.7 0-1.2-.2-1.5-.6-.4-.5-.5-1.1-.5-2V29c0-.7.1-1.3.5-1.8.3-.5.8-.7 1.4-.7.7 0 1.1.2 1.5.7.3.5.5 1 .5 1.8v1.8c0 .8-.2 1.4-.5 1.9-.4.4-.8.6-1.5.6Zm9.8-5.2v.5h1V28a2.4 2.4 0 0 0-1.7-2.4 3.7 3.7 0 0 0-3.2.5c-.3.2-.5.4-.6.7a2 2 0 0 0-.2.9v.1c0 .4 0 .7.2 1l.5.6.9.5 1.2.2c.7.1 1.2.3 1.5.5.3.3.5.6.5 1v.1c0 .5-.2.8-.5 1.1-.3.3-.7.4-1.4.4s-1.3-.1-1.7-.5c-.4-.4-.6-1-.6-1.7v-.3h-1v.4l.2 1.2a2.8 2.8 0 0 0 1.7 1.6 4 4 0 0 0 2.7 0c.3 0 .6-.2.9-.4l.5-.8c.2-.3.2-.6.2-1v-.1a2 2 0 0 0-.6-1.5c-.4-.4-1-.7-2-.8l-1-.2-.6-.3-.5-.4-.1-.6v-.1l.1-.6.4-.4.6-.2.7-.1h.7l.6.4.5.5.1.7Zm3.3-2.4v1h2.2V33h-2.2v.9h5.4v-1h-2.2v-6.5h2.2v-.9h-5.4Zm12.6 2.4v.5h1V28a2.4 2.4 0 0 0-1.7-2.4 3.7 3.7 0 0 0-3.2.5c-.3.2-.5.4-.6.7a2 2 0 0 0-.2.9v.1c0 .4 0 .7.2 1l.5.6.9.5 1.1.2c.8.1 1.3.3 1.6.5.3.3.5.6.5 1v.1c0 .5-.2.8-.5 1.1-.3.3-.8.4-1.4.4-.7 0-1.3-.1-1.7-.5-.4-.4-.6-1-.6-1.7v-.3h-1v.4l.2 1.2a2.8 2.8 0 0 0 1.7 1.6 4 4 0 0 0 2.7 0c.3 0 .6-.2.9-.4l.5-.8.2-1v-.1a2 2 0 0 0-.6-1.5c-.4-.4-1-.7-2-.8l-1-.2-.6-.3-.5-.4-.1-.6v-.1l.1-.6.4-.4.6-.2.6-.1h.8l.6.4.5.5.1.7ZM282 43.5h2l1.1-.1.8-.5.5-.8.2-.9V41a2.4 2.4 0 0 0-.7-1.6c-.2-.2-.4-.4-.8-.5l-1-.2h-3V47h1v-3.5Zm0-.9v-3h1.9c.6 0 1 0 1.3.3.2.3.4.6.4 1v.3c0 1-.6 1.4-1.7 1.4H282Zm7.7-4h-1v5.6c0 1 .3 1.7.8 2.2.5.5 1.2.8 2.1.8 1 0 1.6-.3 2.1-.8s.8-1.2.8-2.2v-5.6h-1v5.6c0 .7-.2 1.2-.5 1.5-.3.4-.8.5-1.4.5-.6 0-1-.1-1.4-.5-.3-.3-.5-.8-.5-1.5v-5.6Zm12.5 8.4v-3c0-.3 0-.5-.2-.7a1 1 0 0 0-.6-.3V43c.4-.2.7-.4.8-.7.2-.3.3-.6.3-1V41a2.4 2.4 0 0 0-.7-1.6c-.2-.2-.4-.4-.8-.5l-1-.2h-3V47h1v-3.5h2.5c.3 0 .4.1.5.2l.2.5V47h1Zm-4.3-4.4v-3h1.9c.6 0 1 0 1.3.3.2.3.4.6.4 1v.3c0 .4-.2.8-.4 1-.3.3-.7.4-1.3.4h-1.9Zm7-4v1h2.1V46H305v.9h5.3v-1H308v-6.5h2.2v-.9h-5.3Zm8 0V47h1v-3.7h4.1v-1h-4v-2.8h4v-.9h-5Zm7.8 0v1h2.2V46h-2.2v.9h5.4v-1h-2.2v-6.5h2.2v-.9h-5.4Zm8.1 0V47h5.2v-1h-4.2v-2.7h4v-1h-4v-2.8h4.1v-.9h-5Zm7.7 0v1h.7V46h-.7v.9h2.8c1 0 1.8-.2 2.3-.7.4-.5.7-1.3.7-2.4v-2.2c0-1-.3-1.9-.8-2.4-.4-.4-1.2-.7-2.2-.7h-2.8Zm2.6 7.5h-.9v-6.6h1l.9.1c.2.1.5.2.6.4l.4.7.2 1v2.1c0 .5 0 .8-.2 1.1 0 .3-.2.5-.4.7-.1.2-.4.3-.6.4h-1Zm5.7 1.9h-.4v.9h.4a4.1 4.1 0 0 0 3.9-2.7 5 5 0 0 0 .4-1.9v-3a4.7 4.7 0 0 0-1.3-3.3l-1.4-1c-.5-.2-1-.3-1.6-.3h-.4v1h.4a3.2 3.2 0 0 1 3 2c.2.5.3 1 .3 1.6v3c0 .5 0 1-.3 1.5-.2.5-.4.9-.7 1.2a3.2 3.2 0 0 1-2.3 1Z" fill="#000"></path>
  <path class="t-shadow" d="M168.2 279.2c1.1 0 2.4 0 3.5-.2.6-.1 1.1-.6 1-1.3-.4-2.3-1.4-5.6-1.4-9.1 0-3 1.1-4.7 3.9-4.7 1.9 0 4.2.5 5.8 1.7.6.7 1.5.5 1.5-.6l-.1-5.3c0-.7-.6-1.2-1.3-1.1-1.8.3-3.8.4-5.6.4-2.7 0-4.2-1.3-4.2-3.2v-.5c0-2 1.9-3.2 4.7-3.2 3.8 0 6.2 1 7.8 3.5.7 1 1.9.6 1.8-.6 0-2.4-.2-6.7-.4-8.5 0-.7-.4-1-1.1-1.1l-9.1-.1-9.4.1c-.6 0-1.2.4-1.2 1-.6 7.7-.9 20.7-1 31.4 0 .7.6 1.2 1.2 1.2l3.6.2Zm26.3 0c1.1 0 2.5 0 3.6-.2.7-.1 1.3-.6 1.2-1.3-.4-3.3-1-7.1-1-11 0-1.4.6-2.1 1.5-2 3.2.7 5.6 6.8 5.6 13 0 .8.5 1.2 1.2 1.3a47.9 47.9 0 0 0 6.9 0c.6-.1 1.2-.5 1.2-1.3-.2-9-3.2-13.2-8.5-14.7-.8-.2-.8-.8 0-1 4.9-1.5 7.8-5.3 7.8-9.4 0-5-4.4-7.4-11.7-7.4-3.7 0-8.4 0-10.1.2-.6 0-1.2.5-1.2 1-.3 6.1-1 23.4-1 31.4 0 .7.6 1 1.3 1.2l3.2.2Zm5.5-19c-1 .3-1.6 0-1.7-1v-5.4c0-.8.5-1.3 1.2-1.3h1.8c3.2 0 4.8.9 4.8 3 0 2-2.2 3.8-6.1 4.6Zm30.7 19.1c8 0 12.3-3.9 12.3-12.7 0-6.2-.5-14.9-1-20-.1-.7-.5-1-1.1-1.2a20.7 20.7 0 0 0-6.2 0c-.6.1-1.2.6-1 1.3.7 5.6 1.2 12.8 1.2 18.3 0 4.1-1.3 6.6-4.2 6.6-2.9 0-4.2-2.4-4.2-6.6 0-5.5.4-12.8 1.2-18.3.1-.7-.4-1.2-1-1.3a22.7 22.7 0 0 0-6.2 0c-.6.1-1 .5-1 1.2-.6 5.1-1.1 13.8-1.2 20 0 8.8 4.3 12.7 12.4 12.7Zm21.4-.1c.8 0 2.3 0 3.2-.2.6-.1 1.2-.6 1.2-1.3 0-11.5-.4-24-.7-31.1 0-.7-.5-1-1.1-1.2a22.7 22.7 0 0 0-5.1 0c-.7.1-1.1.5-1.2 1.2-.3 7-.7 19.6-.7 31.1 0 .7.6 1.2 1.2 1.3l3.2.2Zm21 0 3.5-.2c.7-.1 1.3-.6 1.2-1.3l-1.3-22.5c-.1-2 .4-2.9 1.6-2.9 2.2 0 4.2 1.6 5.4 3.4.5.8 1.7.8 1.7-.6 0-1.5-.1-7-.3-8.6 0-.7-.5-1-1.1-1.1-2.7-.2-7.7-.2-10.7-.2-3.3 0-8.1 0-10.8.2-.6 0-1 .4-1.1 1.1-.2 1.6-.3 7-.3 8.5s1.1 1.5 1.7.7c1.2-1.8 3.5-3.4 5.4-3.4 1.2 0 1.8 1 1.7 2.9l-1.3 22.5c0 .7.5 1.2 1.1 1.3l3.7.1Zm27.8.1c7.5 0 12.2-3.4 12.2-9.3 0-9.6-15.4-9.8-15.4-15 0-2 2.4-2.9 5-2.8 2.4 0 5 .9 7 2.7.6 1 1.7.6 1.7-.8l-.2-6.2c0-.5-.3-1-.8-1.3-2.5-1-6-1.5-9-1.5-6.9 0-11.7 3-11.7 8.7 0 9.6 15 9.3 14.9 15 0 2-1.8 3.2-4.8 3.2-3.3 0-6.5-1-9-3.8-.7-.9-1.8-.6-1.8.8v7c0 .6.3 1.1.7 1.4 3.2 1.2 8 2 11.2 2Zm43 0c3.3 0 7.6-1 9.8-1.6 1-.8 1.3-1.5 1.3-2.2l-.5-11.7c0-.5.3-.8.8-.8h2.2c.7 0 1.1-.4 1.1-1v-2c0-.8-.7-1.4-1.4-1.4l-2.3.3c-.3 0-.5-.2-.5-.4v-.4c0-.5-.3-.7-.7-1a4 4 0 0 0-1.4-.1c-.5 0-1 0-1.4.2-.5.1-.8.3-.8.8v.6c0 .3-.2.5-.5.5H343c-2.9 0-4.4-2.5-4.4-4.1 0-2.3 2.5-3.3 5.6-3.3 4 0 5.8.9 7.6 2.5.8.9 1.9.7 1.9-.4-.1-1.5-.2-4.8-.4-6.3 0-.7-.5-1-1.2-1.3-2.3-.7-5.5-1.1-8.4-1.1-5.9 0-11 2.3-11 7.5 0 3 1.2 6 4.3 7.2 1 .5 1 1.2 0 1.5-3.7 1.2-5.2 4-5.2 7.5 0 7.3 5.5 10.5 12 10.5Zm1.2-7.4c-3.6 0-6.4-2-6.4-4.9 0-3 1.4-4 4.4-4.3a35 35 0 0 1 5.4.1c1.2.2 1.7 1.2 1.7 2.9v1.3c0 3.6-2.6 4.9-5 4.9Z" fill="#FF8179"></path>
  <path class="t-shadow" d="M20 334.2c1.2 0 2.5 0 3.5-.2.7-.1 1.1-.6 1-1.3-.3-2.3-1.3-5.6-1.3-9.1 0-3 1-4.7 3.8-4.7 2 0 4.2.5 5.8 1.7.6.7 1.5.5 1.5-.6l-.1-5.3c0-.7-.6-1.2-1.3-1.1-1.7.3-3.7.4-5.6.4-2.7 0-4.1-1.3-4.1-3.2v-.5c0-2 1.8-3.2 4.7-3.2 3.7 0 6.1 1 7.8 3.5.7 1 1.8.6 1.8-.6 0-2.4-.3-6.7-.4-8.5 0-.7-.5-1-1.2-1.1l-9.1-.1-9.4.1c-.6 0-1.1.4-1.2 1-.5 7.7-.8 20.7-1 31.4 0 .7.6 1.2 1.3 1.2l3.5.2Zm33.3 0c3.1 0 8.7 0 11.4-.2.6 0 1-.5 1-1.1l-.5-10c-.1-1.4-1.4-1.5-2-.5-1.7 3.3-3.7 4.5-7.7 4.5-3.6 0-5.7-1.7-5.7-5.5 0-7.2 1-13.2 2.1-19.8.2-.6-.4-1.1-1.1-1.2l-3-.1-3.7.1c-.6.1-1.2.4-1.2 1-.5 7.7-.9 20.7-1 31.4 0 .7.6 1.2 1.2 1.2l10.2.2Zm29.5.1c8 0 13.4-4 13.4-15.6 0-11.8-5.3-18.6-13.4-18.6-8 0-13.3 6.8-13.3 18.6 0 11.7 5.3 15.6 13.3 15.6Zm0-7.6c-3 0-5.2-2.1-5.2-8.3 0-6.3 2-10.7 5.2-10.7s5.3 4.4 5.3 10.7c0 6.1-2.2 8.3-5.3 8.3Zm25.2 7.5c.8 0 2 0 3-.2s1.7-.5 2-1.6l1.3-8.1c.5-3 1.1-6 2-6 .8 0 1.4 3 2 6l1.3 8.1c.2 1.1.8 1.5 1.9 1.6a25.6 25.6 0 0 0 6.3 0c.7-.1 1-.5 1.2-1.1a246 246 0 0 0 4-31.2c0-.7-.4-1.2-1-1.3a27.4 27.4 0 0 0-6.6 0c-.6.1-1 .5-1 1.3 0 3.4-.3 7.8-.5 10.8-.3 4.5-.8 6.6-1.5 6.6-.8 0-1.2-3.2-1.8-6.3-.3-1.9-1-4.6-1.4-6.6-.5-3-1.3-4.2-3-4.2-1.6 0-2.4 1.3-3 4.2l-1.4 6.7c-.5 3-1 6-1.7 6s-1.2-2.4-1.5-6.6c-.2-3-.4-7.3-.4-10.6 0-.8-.5-1.2-1-1.3a26.9 26.9 0 0 0-6.6 0c-.7.1-1 .6-1 1.3.7 11.6 2.5 24 4 31.2.1.6.6 1 1.2 1.1l3.2.2Zm40.8 0c3.2 0 8.9 0 11.5-.2.6 0 1-.5 1-1.1 0-2-.3-7.6-.5-9.7-.1-1.2-1.4-1.3-1.9-.3-1.8 3.2-3.7 4.4-7.8 4.4-3.3 0-5.8-1.4-5.8-4.8v-1.3c0-2.7 1.8-3.8 4.3-3.8 1.8 0 3.8.4 5.3 1.5.7.7 1.5.5 1.5-.6v-4c0-.7-.5-1.3-1.2-1.2a57 57 0 0 1-5.7.4c-2.7 0-4.2-1.1-4.2-2.9v-.4c0-2 2-3.2 4.7-3.2 3.7 0 6 1 7.8 3.2.8 1 1.8.6 1.8-.5l-.3-8.2c0-.7-.5-1-1.2-1.1l-9.2-.1-9.3.1c-.6 0-1.1.4-1.2 1-.5 7.7-.8 20.7-1 31.4 0 .7.6 1.2 1.3 1.2l10.1.2Zm21.7 0c1.1 0 2.5 0 3.6-.2.7-.1 1.2-.6 1.2-1.3-.4-3.3-1-7.1-1-11 0-1.4.6-2.1 1.5-2 3.2.7 5.6 6.8 5.5 13 0 .8.6 1.2 1.3 1.3a47.9 47.9 0 0 0 6.9 0c.6-.1 1.2-.5 1.2-1.3-.2-9-3.2-13.2-8.5-14.7-.8-.2-.8-.8 0-1 4.9-1.5 7.8-5.3 7.8-9.4 0-5-4.4-7.4-11.7-7.4-3.7 0-8.4 0-10.2.2-.5 0-1 .5-1.1 1-.3 6.1-1 23.4-1 31.4 0 .7.6 1 1.3 1.2l3.2.2Zm5.5-19c-1 .3-1.6 0-1.7-1-.2-1.8 0-3.9 0-5.4 0-.8.5-1.3 1.2-1.3h1.8c3.2 0 4.8.9 4.8 3 0 2-2.2 3.8-6.1 4.6Zm30.8 19.1c7.5 0 12.2-3.4 12.2-9.3 0-9.6-15.4-9.8-15.4-15 0-2 2.4-2.9 5-2.8 2.4 0 5 .9 7 2.7.6 1 1.7.6 1.7-.8l-.2-6.2c0-.5-.3-1-.8-1.3-2.5-1-6-1.5-9-1.5-6.8 0-11.6 3-11.6 8.7 0 9.6 14.8 9.3 14.8 15 0 2-1.8 3.2-4.8 3.2-3.3 0-6.5-1-9-3.8-.7-.9-1.8-.6-1.8.8v7c0 .6.3 1.1.8 1.4 3 1.2 7.9 2 11 2Z" fill="#F6C168"></path>
  <path class="t-shadow" d="M204.3 221.2c.6 0 2.6 0 3.5-.2.6-.1 1.2-.5 1-1.4-.3-3.4-.5-6.5-.5-9.8 0-1.8 1.1-2.5 2.9-2.6h2.3c1.8 0 3 .7 3 2.6 0 3.3-.3 6.4-.6 9.8-.1.9.5 1.3 1 1.4a29.4 29.4 0 0 0 6.8 0c.6-.1 1.2-.6 1.2-1.3 0-11.5-.3-24-1-31.2 0-.7-.5-1-1.2-1.1-.7-.2-1.8-.2-2.5-.2s-2 0-3 .2c-.7 0-1.2.5-1 1.2.2 3 .4 6.1.4 9.8 0 1.8-1.4 2.4-3.1 2.5h-2.3c-1.8 0-3-.7-3-2.5 0-3.7.2-6.8.5-9.7 0-.7-.4-1.2-1.2-1.3a31 31 0 0 0-5.5 0c-.7.1-1.1.5-1.2 1.2-.7 7-1 19.6-1 31.1 0 .7.7 1.2 1.3 1.3l3.2.2Zm37.3 0c3.2 0 9 0 11.6-.2.6 0 1-.5 1-1.1 0-2-.3-7.6-.5-9.7-.2-1.2-1.5-1.3-2-.3-1.7 3.2-3.7 4.4-7.8 4.4-3.2 0-5.7-1.4-5.7-4.8v-1.3c0-2.7 1.7-3.8 4.2-3.8 1.9 0 3.8.4 5.4 1.5.6.7 1.5.5 1.5-.6v-4c0-.7-.6-1.3-1.2-1.2a57 57 0 0 1-5.8.4c-2.7 0-4.1-1.1-4.1-2.9v-.4c0-2 1.8-3.2 4.7-3.2 3.6 0 6 1 7.8 3.2.7 1 1.8.6 1.7-.5l-.3-8.2c0-.7-.5-1-1.2-1.1l-9.1-.1-9.3.1c-.7 0-1.2.4-1.2 1-.6 7.7-.9 20.7-1 31.4 0 .7.5 1.2 1.2 1.2l10.1.2Zm22.2 0c1.1 0 2.6 0 3.6-.2.7-.1 1.3-.6 1.2-1.3-.4-3.3-1-7.1-1-11 0-1.4.6-2.1 1.5-2 3.3.7 5.7 6.8 5.6 13 0 .8.5 1.2 1.2 1.3a47.9 47.9 0 0 0 6.9 0c.6-.1 1.2-.5 1.2-1.3-.2-9-3.1-13.2-8.5-14.7-.8-.2-.8-.8 0-1 4.9-1.5 7.8-5.3 7.8-9.4 0-5-4.4-7.4-11.7-7.4-3.7 0-8.4 0-10.1.2-.6 0-1.1.5-1.2 1-.3 6.1-.9 23.4-.9 31.4 0 .7.5 1 1.2 1.2l3.2.2Zm5.5-19c-1 .3-1.6 0-1.7-1v-5.4c.1-.8.5-1.3 1.3-1.3h1.7c3.2 0 4.8.9 4.8 3 0 2-2.2 3.8-6.1 4.6Zm31.7 19.1c7 0 13.4-2.6 13.4-8.6 0-4-2.8-7.6-8.6-9.3-.9-.4-.8-1 0-1.3 4.7-1.4 7.4-4.7 7.4-8.2 0-4.7-4.3-6.7-11.8-6.7-3.3 0-7 0-10.1.2-.7 0-1.1.5-1.1 1.2-.6 7.2-1 19.8-1 31.1 0 .7.6 1.3 1.2 1.3 2.2.2 7.6.3 10.6.3Zm-2.2-20.4c-.8.2-1.4 0-1.4-1v-5.3c0-.8.4-1.2 1.3-1.2l2.3-.1c3 0 4.3 1 4.3 3s-1.9 3.8-6.5 4.6Zm.2 13.4c-1 0-1.6-.5-1.6-1.6v-6.3c0-1 .5-1.5 1.5-1.2 4.7 1 7.3 2.6 7.3 5.3 0 2.4-1.7 4-4.5 4l-2.7-.2Zm32.3 7c7.5 0 12.2-3.4 12.2-9.3 0-9.6-15.4-9.8-15.4-15 0-2 2.4-2.9 5-2.8 2.4 0 5 .9 6.9 2.7.7 1 1.8.6 1.8-.8l-.2-6.2c0-.5-.3-1-.8-1.3-2.5-1-6-1.5-9-1.5-6.9 0-11.7 3-11.7 8.7 0 9.6 15 9.3 14.9 15 0 2-1.8 3.2-4.8 3.2-3.3 0-6.6-1-9-3.8-.7-.9-1.8-.6-1.8.8v7c0 .6.3 1.1.7 1.4 3.2 1.2 8 2 11.2 2Zm20.6 4.7c.4.6 1 .7 1.6.3 2.2-1.7 3.9-4.7 3.9-8.6 0-3.3-1.8-5.4-4.6-5.4-2.6 0-4.5 1.6-4.5 4.5 0 2.7 1.7 4.5 3.7 4.4.4 0 .5.3.3.7-.2.5-.6 1-1.2 1.5s-.6 1-.1 1.5l1 1.1Z" fill="#D2E26B"></path>
  <path class="t-shadow" d="M19.3 163.2c.7 0 2.6 0 3.4-.2.7-.1 1.2-.5 1.1-1.3-.3-3.2-.5-7.8-.4-10.8 0-4.3.3-6.7 1-6.7.8 0 1.4 2.9 2 5.8l1.8 5.8c.6 1.6 1.4 2.5 2.8 2.5 1.3 0 2.2-.8 2.8-2.5l1.8-5.7c.6-3 1.1-6 2-6 .7 0 1 2.4 1 6.8 0 3-.1 7.6-.5 10.8 0 .8.5 1.2 1.1 1.3a31 31 0 0 0 6.8 0c.6-.1 1-.6 1-1.3a354 354 0 0 0-2-31.1c0-.7-.4-1-1-1.2a41.7 41.7 0 0 0-6.7 0c-1 .1-1.7.5-2 1.5l-1.9 8.3c-.7 3-1.6 5.7-2.4 5.7-.8 0-1.7-2.7-2.6-5.8-.5-2.5-1.3-6.5-1.8-8.1-.4-1.2-1-1.4-2-1.6a35.1 35.1 0 0 0-6.6 0c-.6.1-1 .5-1.1 1.2-.8 7-1.8 19.5-2 31.1 0 .7.4 1.2 1 1.3l3.4.2Zm36.7 0 3.6-.2c.6-.1 1-.5 1-1.1-.1-1.9 0-4 .3-5.8.3-1.2 1.5-2 3.1-2h2.4c1.6 0 2.8.7 3.1 2 .3 1.8.4 4 .3 5.8 0 .6.4 1 1 1.1a44.2 44.2 0 0 0 6.7 0c.7 0 1.2-.6 1-1.2a154.2 154.2 0 0 0-8.1-31.5c-.2-.5-.6-.8-1.2-.9a40.6 40.6 0 0 0-8 0c-.6.1-1 .4-1.2.9-2.9 7.3-6.4 19.8-8 31.4-.3.7.2 1.2 1 1.3l3 .2Zm8.7-13c-1.5 0-2.2-.8-2-2 .4-2.8 1-5.7 1.7-8.8.4-1.7 1.1-1.7 1.6 0 .8 3 1.3 6 1.6 8.8.4 1.2-.4 2-1.9 2h-1Zm30.7 13.1c8.6 0 13.6-4 13.6-15.2 0-12.2-6.1-18.9-15-18.9-2.6 0-6.2 0-8.5.2-.6 0-1 .5-1.1 1.1-.4 7.2-1 20-1 31.3 0 .6.6 1.2 1.2 1.2l10.8.3Zm-2-8.2c-1.2 0-1.8-.9-1.8-2.6-.1-4.3-.2-9.3 0-13.7 0-1.2.6-2 1.5-2h1.6c3.7 0 6.4 4 6.4 11 0 5.3-2.6 7.3-5.7 7.4h-2Zm32 8 11.6-.1c.6 0 1-.5 1-1.1 0-2-.3-7.6-.5-9.7-.2-1.2-1.5-1.3-2-.3-1.7 3.2-3.7 4.4-7.8 4.4-3.2 0-5.7-1.4-5.7-4.8v-1.3c0-2.7 1.7-3.8 4.2-3.8 1.9 0 3.8.4 5.4 1.5.6.7 1.5.5 1.5-.6v-4c0-.7-.6-1.3-1.2-1.2a57 57 0 0 1-5.7.4c-2.8 0-4.2-1.1-4.2-2.9v-.4c0-2 1.8-3.2 4.7-3.2 3.6 0 6 1 7.8 3.2.7 1 1.8.6 1.7-.5l-.3-8.2c0-.7-.5-1-1.2-1.1l-9.1-.1-9.3.1c-.7 0-1.2.4-1.2 1-.6 7.7-.9 20.7-1 31.4 0 .7.5 1.2 1.2 1.2l10.1.2Zm37.3 0 3.5-.1c.6-.1 1.1-.6 1-1.3-.4-2.3-1.4-5.6-1.4-9.1 0-3 1.1-4.7 4-4.7 1.8 0 4 .5 5.7 1.7.6.7 1.5.5 1.5-.6l-.1-5.3c0-.7-.6-1.2-1.3-1.1-1.8.3-3.8.4-5.6.4-2.7 0-4.2-1.3-4.2-3.2v-.5c0-2 1.9-3.2 4.7-3.2 3.8 0 6.2 1 7.8 3.5.7 1 1.9.6 1.8-.6 0-2.4-.2-6.7-.4-8.5 0-.7-.4-1-1.1-1.1l-9.1-.1-9.4.1c-.6 0-1.1.4-1.2 1-.6 7.7-.9 20.7-1 31.4 0 .7.6 1.2 1.2 1.2l3.6.2Zm26.8 0 3.6-.1c.7-.1 1.2-.6 1.1-1.3-.3-3.3-1-7.1-.9-11 0-1.4.6-2.1 1.5-2 3.2.7 5.6 6.8 5.5 13 0 .8.6 1.2 1.3 1.3a47.9 47.9 0 0 0 6.8 0c.7-.1 1.3-.5 1.3-1.3-.2-9-3.2-13.2-8.5-14.7-.8-.2-.8-.8 0-1 4.9-1.5 7.8-5.3 7.8-9.4 0-5-4.4-7.4-11.7-7.4-3.7 0-8.4 0-10.2.2-.5 0-1 .5-1.1 1-.3 6.1-1 23.4-1 31.4 0 .7.6 1 1.3 1.2l3.2.2Zm5.5-19c-1 .4-1.6.2-1.7-.9-.2-1.8 0-3.9 0-5.4 0-.8.5-1.3 1.2-1.3h1.8c3.2 0 4.8.9 4.8 3 0 2-2.2 3.8-6.1 4.6Zm31.5 19.2c8 0 13.4-4 13.4-15.6 0-11.8-5.3-18.6-13.4-18.6-8 0-13.3 6.8-13.3 18.6 0 11.7 5.3 15.6 13.3 15.6Zm0-7.6c-3 0-5.2-2.1-5.2-8.3 0-6.3 2-10.7 5.2-10.7s5.3 4.4 5.3 10.7c0 6.1-2.2 8.3-5.3 8.3Zm22.8 7.5c.7 0 2.6 0 3.4-.2.6-.1 1.2-.5 1.1-1.3-.4-3.2-.5-7.8-.5-10.8.1-4.3.4-6.7 1-6.7 1 0 1.4 2.9 2.1 5.8l1.7 5.8c.7 1.6 1.5 2.5 2.9 2.5 1.3 0 2.2-.8 2.8-2.5l1.7-5.7c.7-3 1.2-6 2-6s1 2.4 1.1 6.8c0 3-.1 7.6-.5 10.8 0 .8.5 1.2 1 1.3a31 31 0 0 0 6.9 0c.6-.1 1-.6 1-1.3a354 354 0 0 0-2-31.1c0-.7-.4-1-1-1.2a41.7 41.7 0 0 0-6.7 0c-1 .1-1.7.5-2 1.5l-1.9 8.3c-.7 3-1.6 5.7-2.4 5.7-.8 0-1.7-2.7-2.6-5.8l-1.8-8.1c-.4-1.2-1-1.4-2-1.6a35.1 35.1 0 0 0-6.6 0c-.7.1-1 .5-1.1 1.2-.8 7-1.9 19.5-2 31.1 0 .7.4 1.2 1 1.3l3.4.2Z" fill="#D8945A"></path>
  <path class="t-shadow" d="M27.8 47.3C35.3 47.3 40 44 40 38c0-9.6-15.4-9.8-15.4-15 0-2 2.4-2.9 5-2.8 2.4 0 5 .9 6.9 2.7.7 1 1.8.6 1.8-.8L38 16c0-.5-.3-1-.8-1.3-2.5-1-6-1.5-9-1.5-6.9 0-11.7 3-11.7 8.7 0 9.6 15 9.3 14.9 15 0 2-1.8 3.2-4.8 3.2-3.3 0-6.6-1-9-3.8-.7-.9-1.8-.6-1.8.8v7c0 .6.3 1.1.7 1.4 3.2 1.2 8 2 11.2 2Zm22-.1c1 0 2.7 0 3.7-.2.6-.1 1.2-.7 1-1.3-.2-2.7-1.3-6-1.3-9.8 0-1.2.3-1.8 1-1.9 8.2-.2 14.8-5 14.8-12.5C69 16 64.4 13 57 13c-3.2 0-7.5.2-9.8.4-.7 0-1 .5-1.1 1-.5 6.2-.9 20.8-1 31.4 0 .7.5 1 1.2 1.2l3.6.2Zm4.9-18c-.9.1-1.3-.2-1.4-1v-7c0-.6.4-1 1.2-1.1h1.7c3.5 0 5 1.2 5 3.4 0 2.8-2.1 5.4-6.5 5.7Zm19.4 18 3.6-.2c.6-.1 1-.5 1-1.1-.1-1.9 0-4 .3-5.8.3-1.2 1.5-2 3.1-2h2.4c1.5 0 2.8.7 3.1 2 .3 1.8.4 4 .3 5.8 0 .6.4 1 1 1.1a44.2 44.2 0 0 0 6.7 0c.7 0 1.2-.6 1-1.2a154.2 154.2 0 0 0-8.2-31.5c-.1-.5-.5-.8-1-.9a40.6 40.6 0 0 0-8.2 0c-.5.1-.9.4-1 .9-3 7.3-6.5 19.8-8.2 31.4-.2.7.3 1.2 1 1.3l3.1.2Zm8.7-13c-1.6 0-2.2-.8-2-2 .4-2.8 1-5.7 1.6-8.8.5-1.7 1.2-1.7 1.7 0 .7 3 1.3 6 1.6 8.8.3 1.2-.4 2-2 2h-1Zm23.2 13c1 0 2.5 0 3.6-.2.6-.1 1.2-.6 1.1-1.3-.4-3.3-1-7.1-.9-11 0-1.4.6-2.1 1.5-2 3.2.7 5.6 6.8 5.5 13 0 .8.6 1.2 1.3 1.3a47.9 47.9 0 0 0 6.8 0c.7-.1 1.3-.5 1.2-1.3-.2-9-3-13.2-8.5-14.7-.7-.2-.7-.8 0-1 5-1.5 7.9-5.3 7.9-9.4 0-5-4.4-7.4-11.8-7.4-3.6 0-8.3 0-10 .2-.7 0-1.2.5-1.2 1-.3 6.1-1 23.4-1 31.4 0 .7.6 1 1.3 1.2l3.2.2Zm5.4-19c-.9.3-1.5 0-1.6-1-.2-1.8 0-3.9 0-5.4 0-.8.5-1.3 1.2-1.3h1.8c3.2 0 4.8.9 4.8 3 0 2-2.2 3.8-6.2 4.6Zm24.8 19c.7 0 2.5 0 3.4-.2.6-.1 1.2-.5 1.1-1.3-.5-3.5-1-7-1-10.5 0-1.5.7-2.9 1.5-2.9 3.4 0 6.3 7 6.4 13.5 0 .7.6 1 1.3 1.2l4 .1 3.4-.1c.7-.2 1.3-.6 1.2-1.4-.5-11-4.2-15.3-10.8-16.8-.8-.3-.8-.9 0-1.2 6-1.5 9-5.5 9.3-12.8.1-.8-.4-1.3-1.1-1.4a37.7 37.7 0 0 0-6.4 0c-.7 0-1.1.5-1.2 1.2-.3 4.4-2.5 10.3-5.9 10.3-.8 0-1.6-1-1.6-2.4 0-3 .4-5.4.8-7.8.1-.7-.4-1.2-1-1.3a23 23 0 0 0-6.3 0c-.7.1-1 .5-1 1.1-.5 7.2-.9 19.7-.9 31.2 0 .8.6 1.2 1.2 1.3l3.6.2Zm37.7 0c3.2 0 8.8 0 11.4-.2.6 0 1-.5 1-1.1l-.5-10c-.1-1.4-1.4-1.5-1.9-.5-1.8 3.3-3.7 4.5-7.8 4.5-3.6 0-5.6-1.7-5.7-5.5 0-7.2 1-13.2 2.1-19.8.2-.6-.4-1.1-1-1.2l-3-.1-3.8.1c-.6.1-1.1.4-1.2 1-.5 7.7-.8 20.7-1 31.4 0 .7.6 1.2 1.3 1.2l10 .2Zm22 0c.7 0 2.2 0 3.1-.2.7-.1 1.2-.6 1.2-1.3 0-11.5-.3-24-.7-31.1 0-.7-.5-1-1-1.2a22.7 22.7 0 0 0-5.2 0c-.7.1-1.1.5-1.2 1.2-.3 7-.7 19.6-.7 31.1 0 .7.6 1.2 1.2 1.3l3.2.2Zm31 .1c2.5 0 3.7-2.2 3.7-6.2 0-11-.4-20-1-26.5 0-.7-.5-1-1.1-1.2a16.8 16.8 0 0 0-5.3 0c-.8.2-1.3.7-1.2 1.5.8 4.2 2.2 14.2.2 14.2-1.8 0-5.8-9.2-7.7-14-.6-1-1.3-1.6-2.3-1.7a13.3 13.3 0 0 0-4.5 0c-.6.2-1 .5-1 1.2-.7 7.1-1 19.6-1.1 31.1 0 .7.5 1.2 1.2 1.3a26.3 26.3 0 0 0 6.4 0c.7-.1 1.3-.6 1.2-1.4-.3-2.6-.8-7.8-.8-11 0-2.2.4-3.6 1.1-3.6 3 0 6.1 16.3 12.2 16.3Zm19.3 0c3.4 0 5.6-1.6 7-5 .3-1.2 1-1 1 .2l-.3 3.3c0 .7.4 1.2 1.1 1.2h5.7c.7 0 1.2-.5 1.2-1.2 0-6-.2-11.9-.7-17.4 0-.6-.5-1.1-1.2-1.1-2.2 0-4.8 0-7 .2-1 0-1.2.8-.8 1.4.8 1.2 1 2.4 1 4.4 0 3.6-1.7 6.3-4.4 6.4-2.9 0-5-2.1-5-8.2 0-7.3 2.8-10.8 6.5-10.8 3 0 5 1.3 6.6 3.3.5.8 1.5.6 1.6-.5l.6-6.7a2 2 0 0 0-.8-1.8c-2.1-1.2-5.3-2-8.3-2-8.5.1-14.3 7.2-14.3 18.7 0 11.2 4.7 15.6 10.5 15.6ZM24 105.2c.8 0 2 0 3-.2s1.7-.5 2-1.6l1.3-8.1c.5-3 1.1-6 2-6 .8 0 1.4 3 2 6l1.3 8.1c.2 1.1.8 1.5 1.9 1.6a25.6 25.6 0 0 0 6.3 0c.7-.1 1-.5 1.2-1.1a246 246 0 0 0 4-31.2c0-.7-.4-1.2-1-1.3a27.4 27.4 0 0 0-6.6 0c-.6.1-1 .5-1 1.3 0 3.4-.3 7.8-.5 10.8-.3 4.5-.8 6.6-1.5 6.6-.8 0-1.2-3.2-1.8-6.3l-1.3-6.6c-.6-3-1.4-4.2-3-4.2-1.7 0-2.5 1.3-3 4.2l-1.5 6.7c-.5 3-.9 6-1.7 6-.7 0-1.2-2.4-1.5-6.6-.2-3-.4-7.3-.4-10.6 0-.8-.5-1.2-1-1.3a26.9 26.9 0 0 0-6.6 0c-.6.1-1 .6-1 1.3.7 11.6 2.5 24 4 31.2.2.6.6 1 1.2 1.1l3.2.2Zm31 0 3.5-.2c.6-.1 1-.5 1-1.1-.1-1.9 0-4 .3-5.8.4-1.2 1.5-2 3.2-2h2.3c1.6 0 2.8.7 3.2 2 .3 1.8.4 4 .2 5.8 0 .6.4 1 1 1.1a44.2 44.2 0 0 0 6.7 0c.8 0 1.2-.6 1-1.2a154.2 154.2 0 0 0-8.1-31.5c-.2-.5-.6-.8-1.1-.9a40.6 40.6 0 0 0-8.1 0c-.6.1-1 .4-1.1.9-3 7.3-6.4 19.8-8.1 31.4-.2.7.2 1.2 1 1.3l3 .2Zm8.6-13c-1.5 0-2.2-.8-1.9-2 .3-2.8.9-5.7 1.6-8.8.5-1.7 1.1-1.7 1.7 0 .7 3 1.3 6 1.6 8.8.3 1.2-.5 2-2 2h-1Zm27.3 13 3.5-.2c.7-.1 1.2-.6 1.2-1.3-.4-4.8-1.2-18.3-1.4-22.5 0-2 .5-2.9 1.7-2.9 2.1 0 4.2 1.6 5.3 3.4.6.8 1.8.8 1.8-.6l-.3-8.6c-.1-.7-.5-1-1.2-1.1-2.6-.2-7.6-.2-10.7-.2-3.2 0-8 0-10.7.2-.6 0-1.1.4-1.2 1.1l-.3 8.5c0 1.5 1.2 1.5 1.8.7 1.2-1.8 3.4-3.4 5.4-3.4 1.2 0 1.8 1 1.6 2.9-.2 4.3-.9 17.6-1.3 22.5 0 .7.6 1.2 1.2 1.3l3.6.1Zm28.3 0c3.2 0 8.9 0 11.5-.2.7 0 1-.5 1-1.1 0-2-.2-7.6-.4-9.7-.2-1.2-1.5-1.3-2-.3-1.7 3.2-3.7 4.4-7.8 4.4-3.2 0-5.7-1.4-5.7-4.8v-1.3c0-2.7 1.7-3.8 4.2-3.8 1.9 0 3.8.4 5.4 1.5.6.7 1.4.5 1.4-.6v-4c0-.7-.5-1.3-1.2-1.2a57 57 0 0 1-5.7.4c-2.7 0-4.1-1.1-4.1-2.9v-.4c0-2 1.8-3.2 4.7-3.2 3.6 0 6 1 7.7 3.2.8 1 1.9.6 1.8-.5l-.3-8.2c0-.7-.5-1-1.2-1.1l-9.1-.1-9.4.1c-.6 0-1.1.4-1.2 1-.5 7.7-.8 20.7-1 31.4 0 .7.6 1.2 1.3 1.2l10.1.2Zm22.2 0c1.1 0 2.5 0 3.6-.2.7-.1 1.2-.6 1.1-1.3-.3-3.3-1-7.1-.9-11 0-1.4.6-2.1 1.5-2 3.2.7 5.6 6.8 5.5 13 0 .8.6 1.2 1.3 1.3a47.9 47.9 0 0 0 6.9 0c.6-.1 1.2-.5 1.2-1.3-.2-9-3.2-13.2-8.5-14.7-.8-.2-.8-.8 0-1 4.9-1.5 7.8-5.3 7.8-9.4 0-5-4.4-7.4-11.7-7.4-3.7 0-8.4 0-10.2.2-.5 0-1 .5-1.1 1-.3 6.1-1 23.4-1 31.4 0 .7.6 1 1.3 1.2l3.2.2Zm5.5-19c-1 .3-1.6 0-1.7-1-.2-1.8 0-3.9 0-5.4 0-.8.5-1.3 1.2-1.3h1.8c3.2 0 4.8.9 4.8 3 0 2-2.2 3.8-6.1 4.6Z" fill="#E2D3FF"></path>
  <mask id="path-12-outside-1_2330_71496" maskUnits="userSpaceOnUse" x="180" y="69" width="179" height="96" fill="#000">
    <path fill="#fff" d="M180 69h179v96H180z"></path>
    <path fill-rule="evenodd" clip-rule="evenodd" d="M357 81a10 10 0 0 0-10-10H192a10 10 0 0 0-10 10v14a10 10 0 0 0 10 10h94a10 10 0 0 1 10 10v38a10 10 0 0 0 10 10h41a10 10 0 0 0 10-10V81Z"></path>
  </mask>
  <path fill-rule="evenodd" clip-rule="evenodd" d="M357 81a10 10 0 0 0-10-10H192a10 10 0 0 0-10 10v14a10 10 0 0 0 10 10h94a10 10 0 0 1 10 10v38a10 10 0 0 0 10 10h41a10 10 0 0 0 10-10V81Z" fill="#FBDFDE"></path>
  <path d="M192 72.5h155v-3H192v3ZM183.5 95V81h-3v14h3Zm102.5 8.5h-94v3h94v-3Zm11.5 49.5v-38h-3v38h3Zm49.5 8.5h-41v3h41v-3Zm8.5-56.5v48h3v-48h-3Zm0-3v3h3v-3h-3Zm0-21v21h3V81h-3Zm-8.5 83.5c6.4 0 11.5-5.1 11.5-11.5h-3c0 4.7-3.8 8.5-8.5 8.5v3ZM294.5 153c0 6.4 5.1 11.5 11.5 11.5v-3a8.5 8.5 0 0 1-8.5-8.5h-3Zm-8.5-46.5c4.7 0 8.5 3.8 8.5 8.5h3c0-6.4-5.1-11.5-11.5-11.5v3ZM180.5 95c0 6.4 5.1 11.5 11.5 11.5v-3a8.5 8.5 0 0 1-8.5-8.5h-3ZM347 72.5c4.7 0 8.5 3.8 8.5 8.5h3c0-6.4-5.1-11.5-11.5-11.5v3Zm-155-3c-6.4 0-11.5 5.1-11.5 11.5h3c0-4.7 3.8-8.5 8.5-8.5v-3Z" fill="#000" mask="url(#path-12-outside-1_2330_71496)"></path>
  <g clip-path="url(#clip0_2330_71496)">
		<g data-animate="" data-animate-move-up="" class="is-animated">
			<path d="M242.6 118.4c10 0 18-3 18-6.7s-8-6.7-18-6.7-18 3-18 6.7 8 6.7 18 6.7Z" fill="#5F4D45"></path>
			<path d="M240.3 114.8s-17 .9-20.3-22.9c0 0 3.3-24 13.5-24.4 0 0 8.5-.3 14 5 0 0 4-8.5 9.6-8.5 4.8.5 8.7 3.9 9.5 8.3 0 0 1 11.3-9.5 17 0 0 0 14.8-3.6 18.7 0 0-6.3 8-13.2 6.8Z" fill="#B3CF9C"></path>
			<path d="M222.3 81.8c-.7 2.1-1.1 4.2-1.5 6 .3 1.8.8 3.9 1.4 6a44.6 44.6 0 0 0 10 19c1.7.8 3.6 1.5 5.5 1.8-11.7-8.4-14.7-26-15.4-32.8Z" fill="#F0EADE"></path>
			<path d="m227.5 71.6-.1-.5-2 2.9c.5 2.9 1.3 8.4 2.8 14.7a70.6 70.6 0 0 0 11 26l1.1.1c.7.1 1.3.2 1.9.1-11.5-13.3-14.6-43-14.7-43.3ZM231.2 68a8 8 0 0 0-2 1.2l.6.5c1.7.7 5 5.8 9 17.7a154.7 154.7 0 0 1 7 26.7l2-1c-1.6-11.7-10-41-16.6-45.1ZM251.3 91.5c-1.5-4.6-6.3-18.7-11.8-23.2-1.1-.3-2.3-.5-3.5-.6-.2.6 0 1.2.7 1.4 1 .4 4 2.3 8.5 12.6 2.5 6 4.6 12 6.1 18.3.8 2.8 1.3 5.7 1.6 8.7l.6-.7c.6-.8 1-1.6 1.4-2.5l-.2-1.1c-.9-4.4-2-8.7-3.4-13ZM250.7 79c.5.4 1.2.3 1.6-.1.4-.5.4-1.1 0-1.5-2.1-1.5-1.8-5-1.3-7.7l1-3.4c-1.4 1.4-2.6 2.9-3.5 4.6-.6 3.9.2 6.6 2.2 8.1ZM258 64.1l-1-.1-1.3.1c-1.4 6.6-3.8 22 .5 25.9.2.2.5.3.8.3v-1l1-.7-.1-.2c-3-2.6-1.6-15.4.1-24.3ZM261 86.3a17 17 0 0 0 3.3-4.2c.4-4.8-.1-10.9-.6-15.1-.8-.8-1.7-1.4-2.6-1.8.9 6.3 1.8 16.9 0 21.1Z" fill="#F0EADE"></path>
			<path d="M267.9 61.5c-.5-.7-2.3-.9-3.4.3l-2.9 3.8 1.6-6.8c0-.4 0-.8-.3-1.2-.3-.4-.7-.6-1.2-.7-1-.1-1.3.4-1.5 1.2l-.5 2.4-.9-6.2c0-.4-.3-.8-.6-1L257 53c-.5 0-1 .3-1.3.6-.3.4-.4.8-.3 1.2l1.4 7.4-2.2-3.4c-.4-.8-1.7-1.5-2.6-1.2-.5.2-.8.5-1 1-.1.2.3 2.7.6 3.8l1 1.9 4.8 5 .1.2h.1v.2h.2v.1h.2v.1l.2.1h.1l.1.1H259.8l.2-.1 5.1-3.5c.9-.6 1.6-1.4 2-2.3.2-.3 1-2.3.8-2.7Z" fill="#CA5769"></path>
			<path d="M255.3 67.6s-.5-3.3 0-3.6c0 0 .8-1 1.1 0l1.5 4.2s.3-5.1.5-5.9c0 0 .4-1.3 1.1-.7 0 0 .9.8.6 6.3 0 0 1.6-2.2 2.2-2.1 0 0 1.3-.2 1.3 1.3 0 0-1 2.1-1.5 2.4 0 0-4.5 2.7-6.8-2Z" fill="#F0EADE"></path>
			<path d="M228.5 65.2s-5.3-6.2-7.4-3.6c0 0 .6 3.3 5.6 6.6 0 0-8.1-1-7.9-.3 0 0-2 1.4.3 2.8 0 0 6 .8 11.5 1.1 0 0 3.5 1.8 8.6-2.8 0 0 6-4.5 4.5-6 0 0-2.4-2.5-7.8 2.8 0 0 5.1-10 1.2-10.2 0 0-3-.8-4.4 6.3 0 0-.8-7.4-3.8-6.2 0 0-4 .7-.4 9.5Z" fill="#CA5769"></path>
			<path d="m234.5 71.9.5-4.2.1-.6.6-2.8c0-.3 0-.6-.2-.8a1 1 0 0 0-.9-.3c-.3.1-.5.3-.6.6l-1 5-2-7.9-.5-.5a1 1 0 0 0-.8 0c-.3.1-.6.5-.4 1l1.9 7.5-2-2.4c-.4-.3-1-.4-1.5-.3-.2.1-.3.3-.4.6 0 .2 0 .4.2.6l2.2 2.2c.2.2.4.5.4.8l.2 1.3c.3.4.8.4 1.3.5h1c.6 0 1.3 0 2-.3h-.1Z" fill="#F0EADE"></path>
		</g>
  </g>
  <g clip-path="url(#clip1_2330_71496)">
		<g data-animate="" data-animate-move-up="" data-animate-stagger="1" class="is-animated">
			<path d="M329.2 99a52.8 52.8 0 0 1 .5 6.2h1a3 3 0 0 1 2 .6c.7.5 1 1.1 1.2 1.9v5.6l-.2 2.3-.2 2.5.2.3c1-.6 2-1 3-1.2a3.4 3.4 0 0 1 2.6 1.7l.2 1c0 1.2 0 2.5-.3 3.7-.7 2.7-1.4 5.4-2.3 8.1l-.3 1.2c1.2.6 2.3 1.5 3 2.5.7 1.3.8 2.7.5 4a20 20 0 0 1-5.1 9.3c-.2 1-.2 1.8 0 2.7a3.2 3.2 0 0 0-2.7.9 3 3 0 0 0-.9 2.6l-.2 1.6-.2 1v5.2l.2 1.2v.5l-.2.2h-2c-.3 0-.6-.2-.8-.3-1.7-.3-3.4-.4-5.1-.4-.9 0-1.7-.3-2.4-.7-.6-.3-1-.8-1.2-1.3-.1-.6-.1-1.2.1-1.8l.6-.6c.4-.4 1-.6 1.5-.6h5.8l1.5.3.6-.1-.7-1.2-2.8-3.7a7.3 7.3 0 0 0-3.8-.8l-9.6.1c-1.1 0-2.3-.1-3.4-.4-.7-.2-1.5-.5-2.1-.9-.6-.3-1.1-.7-1.5-1.2l-.3-.6a3.6 3.6 0 0 1 .9-4.1c.5-.7 1.2-1.2 2-1.6l1.9-.8c.4-.2.8-.2 1-.7 0-.2-.1-.3-.3-.5l-4.4-3.7-1.5-1.5a3.8 3.8 0 0 1-1.2-3.3l.1-.7a3.2 3.2 0 0 1 2.3-1.7l.5-.1.3-.4-.5-.6-2.8-2.8a11 11 0 0 1-1.6-2l-2.1-3a8.8 8.8 0 0 1-.4-4 3 3 0 0 1 2-1.7c1-.2 1.9 0 2.7-.3a1.4 1.4 0 0 0-.4-1.1 48 48 0 0 1-4.9-6.7 2.8 2.8 0 0 1 .5-3.3 3 3 0 0 1 1-.6l.5-.3v-.4l-1.4-2-.3-.4-1.8-3-1-2.3c-.3-.8-.4-1.7-.4-2.6V93a4.4 4.4 0 0 1 2.6-3c1-.4 1.8-1 2.7-1.5l.3-.6-.1-.6-1-3.2c-.3-1.3-.5-2.7-.6-4 0-1.2.1-2.3.6-3.4.5-.6 1-1.2 1.7-1.6.9-.1 1.7-.2 2.6-.1h2.1c2 .6 3 2.2 4.3 3.5a.5.5 0 0 0 .6-.2l1-1 1.2-.5a2.3 2.3 0 0 1 2 .2c.8.4 1.4 1 1.8 1.7.8 1.4 1.3 2.8 1.7 4.3l.9 4.4c.2.9.4 1.7.4 2.6l.4 2c0 .7 0 1.4.2 2h.4c.5-.8 1.2-1.5 2-2h2.6a4.3 4.3 0 0 1 2.1 2.7l.6 2V99Zm-7 27.3-.5.3-.7.1-.8-.2c-.4-.6-.6-1.1-.8-1.8l.1-.2.9-.9a20.3 20.3 0 0 0 6.2-13c.4-1.2.4-2.4.2-3.7a2 2 0 0 0-1-1.6 2.1 2.1 0 0 0-2.1 0 7.5 7.5 0 0 0-3.5 2.7l-2 2.9-.7 1-.3-.4c-.3-2-1-3.8-1.8-5.5a1.4 1.4 0 0 1-.2-1.1c.7-.8 1.2-1.8 1.6-2.7.8-1.7 1.3-3.6 1.3-5.4V91l-1-3c-.2-.4-.6-.8-1.1-1-.8-.2-1.6-.1-2.2.2l-.7 1c-.2.4-.2.9-.8.9-.3-.4-.1-1-.2-1.5a25 25 0 0 0-2.2-6.2 3.2 3.2 0 0 0-2.6-1.6c-.5 0-1 0-1.5.2-.7.5-1.2 1.2-1.4 2 0 4.1-.2 2.9.9 5.9l1.3 3.2c1.4 2.9 2.5 5.9 3.2 9v.2c-.3.3-.8.2-1.2.3l-1.3.7-.7 1.3v2.8l.8 1.6c.2.8.6 1.6 1 2.2l.5.7c1.4 2.5 3 5 4.6 7.2a4 4 0 0 0 1.7 1.6c.2 0 .5.1.7.4.1.5.1 1 0 1.6 0 .2-.3.3-.6.3a6.4 6.4 0 0 0-2.6-1.4c-.7-.1-1.4 0-2.1.1a2 2 0 0 0-.4.3c-.6.4-1 1-1 1.7-.2.7 0 1.4.4 2l1.4 2.5c1 1.2 1.7 2.4 2.6 3.6.5.7 1.2 1.3 2 1.7 0 .9-.1 1.8-.4 2.6a1.5 1.5 0 0 0 .2 1.5 3 3 0 0 0 2 .5h4.6c0 .4.1.7.4 1 .5.5 1 1.2 1.3 1.9l.7 1.4c.2.5.6 1 1 1.3l.7.4v.7c0 .2-.2.5-.6.5l-.7-.6a7.4 7.4 0 0 0-2.4-1.7l-.7-.4c-.8-.5-1.6-1-2.4-1.2-.7-.1-1.3 0-2 .2a3 3 0 0 0-1.3 1.3v1.7c.2.6.5 1 .8 1.5.5.6 1.1 1 1.8 1.4l3 2c2.4 1.6 5 3 7.7 4.3l1 .3c1-.4 1-.4.9-1.4a5.4 5.4 0 0 1-1.5-2.7l.2-.6c1.5-2.6 2.6-5.3 3.7-8 1-2 1.4-4.2 1-6.3-.4-1-1-1.7-2-2.1H331c0-.7 0-1.4-.2-2l-1.3-1.2c.1-.6.1-1.1 0-1.6-.2-1.2-.6-2.3-1-3.4a2.9 2.9 0 0 0-1.4-1.7 2.9 2.9 0 0 0-2.5-.3c-.8.5-1.5 1.3-2 2a8 8 0 0 0-.7 3.3l.3.2Z" fill="#988FC1"></path>
			<path d="M328.8 164.6h2l.3-.2v-.6l-.2-1.2v-5.1l.1-1 .3-1.6a2.9 2.9 0 0 1 .8-2.6 3.1 3.1 0 0 1 2.7-.9l1 .8c.2.3.2.8.7 1 .4.2.4-.2.4-.4a61.8 61.8 0 0 1 9-14.4l1-1h1.4a2.5 2.5 0 0 1 1.7 1 2.2 2.2 0 0 1 0 2.8l-.5.6c-2 2.5-3.9 5-5.4 7.9l-3 5.7a4 4 0 0 0-.5 2.2l-.2.3.3-.2c.2 0 .4 0 .6-.2l2.4-1.7 4.4-3.5c1.5-1.2 3.3-2 5.1-2.4a3.3 3.3 0 0 1 2.7 1.6v2c-.4.7-1 1.3-1.6 1.8l-3 2.2-.9 1c-.4 0-.8.2-1.1.5-1 .9-2.2 1.7-3.3 2.5l-1.3 1a107.4 107.4 0 0 0-6.3 8 5.4 5.4 0 0 1-4.1.2c-1.8-.6-3.6-.9-5.3-1.4l-.4-.1c-.6 0-1.2-.3-1.6-.7-.4-.4-.7-1-.8-1.6.1-.6.4-1.1.9-1.6.4-.4 1-.6 1.7-.7Z" fill="#CCDC97"></path>
			<path d="M338.6 170.4a59.7 59.7 0 0 1 7.5-9c1.1-.8 2.3-1.5 3.3-2.5.4-.3.7-.4 1.2-.5h2.3c.6 0 1.1.1 1.6.4a2.8 2.8 0 0 1 1.5 2.3c0 .4 0 1-.3 1.3-.2.5-.5.8-1 1 0 .2-.1.2-.3.3a49 49 0 0 1-5 2.6c-2.3.9-4.5 2-6.8 3l-2.4.9c-.5.2-1 .3-1.6.2Z" fill="#988FC1"></path>
			<path d="M315.7 131.6c-.9-.4-1.6-1-2.1-1.8-1-1.1-1.7-2.4-2.6-3.5l-1.5-2.5a2.8 2.8 0 0 1 .7-3.8l.3-.3c.7-.1 1.5-.2 2.2 0 1 .2 1.8.7 2.6 1.4.3 0 .5-.1.6-.4.1-.5.1-1 0-1.6l-.8-.4a4 4 0 0 1-1.6-1.5 73.4 73.4 0 0 1-6.9-11.7v-2.9l.7-1.3 1.3-.6c.4-.2.9 0 1.2-.4v-.2c-.8-3-1.8-6-3.2-9-.5-1-1-2-1.4-3.2-1-3-.9-1.7-.8-5.9.2-.8.7-1.5 1.4-2 .5-.1 1-.2 1.5-.1a3.2 3.2 0 0 1 2.6 1.5 29 29 0 0 1 2.2 6.2c0 .6-.1 1 .2 1.5.6 0 .6-.5.8-.8l.6-1c.7-.4 1.5-.4 2.3-.3.4.2.8.6 1.1 1l.9 3v5.8c0 1.9-.4 3.7-1.2 5.4-.4 1-1 1.9-1.6 2.7a1.4 1.4 0 0 0 .1 1.2c1 1.7 1.6 3.5 2 5.4l.2.4.7-1 2-2.9c.9-1.2 2-2.1 3.5-2.7a2.1 2.1 0 0 1 2.5.8c.2.2.3.5.4.9.2 1.2.1 2.4-.2 3.6l-.2.8a20.3 20.3 0 0 1-7 13.1v.3c.1.6.4 1.2.8 1.7l.7.2-1.3.6-1.3 1-.3-1a14.6 14.6 0 0 0-5.7-5.6l-.7.3c0 .6.2 1.2.5 1.7a29 29 0 0 0 2.3 3.5c.7 1 1.6 1.8 2.6 2.4l-1.1 2Zm8.4-23.9h-.3c-1.6 1-2.8 2.5-3.7 4.2-1 1.7-1.5 3.5-1.6 5.5l-.1.6c-.4 1.4-.4 3-.2 4.4.6 0 .6 0 .7-.2l1.3-1.7a18.3 18.3 0 0 0 4-10 5 5 0 0 0 .2-2.4l-.3-.4Zm-9.4 7.2.3-.3c.1-1 0-2-.2-3a16.1 16.1 0 0 0-4-7.8l-.7-.6c-.5-.1-1-.2-1.3.3a3.1 3.1 0 0 0 .3 2.5l2.2 3.8c1 1.7 2.2 3.2 3.4 5Zm.2-25.3a4 4 0 0 0-.4.7c-.7 1.6-1.1 3.4-1.1 5.2v3c0 1.1.2 2.2.8 3.2l.3.2.3-.3a13 13 0 0 0 1.2-5.3V93a9 9 0 0 0-.7-3.2l-.4-.2Zm-4.5 3.6a9 9 0 0 0-.2-2.4l-.2-1.2a38.1 38.1 0 0 0-2-6.9l-1-.6-.4.4a8 8 0 0 0 .6 4.5l2.4 5.5c.1.2.3.6.8.7ZM331 131.2h1.5c1 .4 1.7 1.2 2 2.1.4 2.2.1 4.3-.9 6.3-1.2 2.7-2.3 5.4-3.7 8l-.2.6c.2 1 .7 2 1.4 2.7 0 1 0 1-1 1.4l-.9-.3a52.7 52.7 0 0 1-12.4-7.7l-.9-1.4V141c.4-.5.8-1 1.4-1.2.6-.3 1.3-.4 2-.3.8.3 1.6.7 2.3 1.2l.7.4c1 .4 1.7 1 2.4 1.7l.8.6c.4 0 .6-.2.6-.5v-.6l-.7-.5c-.4-.4-.8-.8-1-1.3l-.8-1.4c-.3-.7-.7-1.4-1.3-2-.2-.2-.4-.5-.4-.8l2.7-.7c1-.3 2-.8 2.7-1.5 1-.3 1.7-.9 2.4-1.6l1.2-1.4Zm-1 2.7-.7 1a6.7 6.7 0 0 0-1.5 4.5v2c0 1.3.2 2.6.6 3.8h.2c1.7-3.2 3-6.7 3.9-10.3l-.5-1-.5-.5a.9.9 0 0 0-.5 0l-1 .5Zm-12 7.8c-.2.2-.3.3-.2.4l.1.6c.4.5.9 1 1.4 1.3l4.8 3 2 1c.3.2.6 0 .9-.5l-.7-.7-2.2-2.2a8.3 8.3 0 0 0-2.8-2 18.6 18.6 0 0 1-2-1h-1.4v.1Z" fill="#B8B8CC"></path>
			<path d="m331 131.2-1.3 1.3c-.6.7-1.4 1.3-2.3 1.6l-.4-1.5a4.8 4.8 0 0 0-3.4-2.1 3 3 0 0 0-1.5.6c-.4.3-.8.7-1 1.2-.3.7-.5 1.5-.5 2.2v1.6h-3.4a3 3 0 0 1-2-.5 1.5 1.5 0 0 1 0-1.5l.4-2.6 1.2-2 1.2-1.3 1.4-1 1.2-.6h.8a.5.5 0 0 0 .5-.4c1.7-.1 3.4.1 5 .7l2.5 1 1.3 1.2c.2.7.3 1.4.2 2Z" fill="#EBF4EF"></path>
			<path d="M329.5 128c-.9-.3-1.7-.8-2.5-1a13 13 0 0 0-5-.8c0-1 .3-2.1.7-3.1.5-.9 1.1-1.6 2-2a3 3 0 0 1 2.4.2 3 3 0 0 1 1.5 1.7 32 32 0 0 1 1 3.3l-.1 1.7Z" fill="#B8B8CC"></path>
			<path d="M320.6 136.1v-1.6c0-.8.2-1.5.6-2.2.2-.5.5-1 1-1.3a3 3 0 0 1 1.5-.6 5 5 0 0 1 3.4 2.2l.3 1.5c-.8.7-1.7 1.2-2.8 1.4l-2.6.7h-1.4Z" fill="#234E32"></path>
			<path d="m322 126.2-.2.3h-.3l.5-.3Z" fill="#B8B8CC"></path>
			<path d="m340.8 157.7-.3.1.2-.2Z" fill="#EBF4EF"></path>
			<path d="m324.1 107.7.3.4a5 5 0 0 1-.2 2.5l-.1.8c-.4 3.3-1.8 6.5-3.9 9.2l-1.3 1.6c0 .2 0 .2-.7.3-.2-1.5-.2-3 .2-4.5v-.6a12.8 12.8 0 0 1 5.4-9.6h.3ZM314.7 114.9c-1.2-1.9-2.4-3.4-3.4-5.2a56.6 56.6 0 0 1-2.6-5l.1-1.3c.4-.4.8-.3 1.3-.2l.8.5c1 1.2 1.9 2.5 2.6 4 .5 1.2 1 2.5 1.3 3.8.3 1 .3 2 .2 3l-.3.4ZM315 89.6l.3.1a9 9 0 0 1 .7 3.2v3.3a13 13 0 0 1-1.2 5.4l-.3.3-.3-.3c-.6-1-.8-2-.8-3.1v-3c0-1.9.4-3.6 1-5.3l.5-.6ZM318.2 128.6l-1.2 1.2c-1-.6-2-1.4-2.6-2.4a29 29 0 0 1-2.4-3.4c-.3-.6-.5-1.2-.5-1.8l.7-.2c2.4 1.3 4.4 3.2 5.7 5.6l.3 1ZM310.4 93.2c-.6-.1-.7-.5-.8-.8-.8-1.8-1.7-3.6-2.4-5.5a8 8 0 0 1-.6-4.4c0-.2.3-.3.4-.4a2.2 2.2 0 0 1 1.4 1.5 37.8 37.8 0 0 1 1.6 6c0 .4 0 .8.2 1.1.2.8.2 1.7.2 2.5ZM330 133.9l1-.5h.6l.4.4.5 1c-.8 3.6-2 7.1-3.9 10.4h-.1a9.8 9.8 0 0 1-.6-3.8v-2c0-1.6.5-3.2 1.5-4.5l.6-1ZM318 141.7c.4-.2.8-.2 1.3-.2l.4.2 1.6 1c1 .4 2 1 2.8 1.9l2.2 2.2.7.7c-.3.5-.6.7-.8.5l-2-1.1-4.9-3c-.5-.3-1-.7-1.4-1.2l-.1-.6.1-.4Z" fill="#988FC1"></path>
		</g>
  </g>
  <path d="M237.6 320h-.5a3.2 3.2 0 0 1-2.3-1c-.3-.3-.5-.7-.7-1.2a4 4 0 0 1-.3-1.5v-3a4 4 0 0 1 1-2.7 3.2 3.2 0 0 1 2.3-1h.5v-.9h-.5l-1.6.3a4.3 4.3 0 0 0-2.3 2.4c-.2.6-.3 1.2-.3 1.9v3a4.7 4.7 0 0 0 1.3 3.4c.3.4.8.7 1.3.9.5.2 1 .3 1.6.3h.5v-1Zm7.6-1v-3c0-.3 0-.5-.2-.7a1 1 0 0 0-.5-.3v-.1l.8-.7.2-1v-.3a2.4 2.4 0 0 0-.6-1.6l-.8-.5-1.1-.2h-3v8.4h1v-3.5h2.6l.5.2.1.5v2.8h1Zm-4.2-4.4v-3h1.8c.6 0 1 0 1.3.3.3.3.4.6.4 1v.3c0 .4-.1.8-.4 1-.3.3-.7.4-1.3.4H241Zm7-4v8.4h5.2v-1H249v-2.7h4v-1h-4v-2.8h4.1v-.9h-5Zm12.3 6.3.6 2.1h1.1l-2.5-8.4h-2L255 319h1.1l.6-2h3.6Zm-1.9-5.9h.2l1.4 5h-3l1.4-5Zm5.4-.4v8.4h5.4v-1h-4.4v-7.4h-1Zm15.8 0v8.4h1v-3.7h3.5v3.7h1v-8.4h-1v3.7h-3.5v-3.7h-1Zm8.2 0v8.4h5.1v-1h-4.1v-2.7h4v-1h-4v-2.8h4v-.9h-5Zm13 8.4v-3l-.1-.7a1 1 0 0 0-.6-.3v-.1c.4-.2.6-.4.8-.7.2-.3.3-.6.3-1v-.3a2.4 2.4 0 0 0-.7-1.6l-.8-.5-1.1-.2h-3v8.4h1v-3.5h2.6c.3 0 .4.1.5.2l.2.5v2.8h1Zm-4.2-4.4v-3h1.9c.5 0 1 0 1.2.3.3.3.5.6.5 1v.3c0 .4-.2.8-.5 1-.2.3-.7.4-1.2.4h-1.9Zm6.6 3.5v.9h3.4c.4 0 .8 0 1-.2.4 0 .6-.2.8-.4.3-.2.4-.5.5-.7l.2-.9v-.1c0-.5-.2-.9-.4-1.2-.3-.3-.6-.5-1-.6v-.2l.5-.2.5-.4.3-.5v-1.7l-.6-.7-.7-.4-1-.2h-3.5v1h.7v6.5h-.7Zm1.7 0v-2.8h1.7c.5 0 .8 0 1.1.3.3.3.4.6.4 1v.1c0 .5-.1.8-.4 1-.3.3-.7.4-1.2.4H305Zm0-3.8v-2.8h1.6c.5 0 .9.2 1.2.4.3.2.4.5.4 1s-.1.8-.4 1c-.3.3-.6.4-1.1.4h-1.7Zm11 2.6.7 2.1h1l-2.5-8.4h-1.9l-2.5 8.4h1l.6-2h3.6Zm-1.8-5.9h.1l1.5 5h-3l1.4-5Zm5.4-.4v8.4h5.4v-1h-4.4v-7.4h-1Zm-87.4 13v8.4h5.2v-1H233v-2.7h4v-1h-4v-2.8h4.1v-.9h-5Zm8.5 0h-1l2 4.1v.2l-2 4.1h1l2-3.7h.1l2 3.7h1l-2-4.1v-.2l2-4.1h-1l-2 3.7h-.2l-1.9-3.7Zm7 0v1h2.5v7.4h1v-7.5h2.4v-.9h-5.9Zm13.5 8.4v-3c0-.3 0-.5-.2-.7a1 1 0 0 0-.5-.3v-.1l.8-.7.2-1v-.3a2.4 2.4 0 0 0-.6-1.6l-.8-.5-1.1-.2h-3v8.4h1v-3.5h2.6l.5.2.1.5v2.8h1Zm-4.2-4.4v-3h1.8c.6 0 1 0 1.3.3.3.3.4.6.4 1v.3c0 .4-.1.8-.4 1-.3.3-.7.4-1.3.4H257Zm11.4 2.3.6 2.1h1l-2.5-8.4h-1.9L263 332h1l.7-2h3.6Zm-2-5.9h.2l1.5 5h-3l1.4-5Zm8.2 7.2c-.7 0-1.2-.2-1.5-.6-.3-.5-.5-1.1-.5-2V327c0-.7.2-1.3.5-1.8s.8-.7 1.5-.7l.8.1.6.5.4.7.1.8v.1h1v-.1c0-.4 0-.8-.2-1.2a3 3 0 0 0-.5-1c-.3-.3-.6-.5-1-.6-.3-.2-.8-.3-1.2-.3-1 0-1.7.3-2.2 1-.5.5-.8 1.4-.8 2.5v1.8c0 1.2.3 2 .8 2.6.5.6 1.2.9 2.2.9.4 0 .9-.1 1.2-.3.4-.1.7-.3 1-.6l.5-1 .2-1.2v-.1h-1v.1l-.1.8c0 .3-.2.5-.4.7l-.6.5a2 2 0 0 1-.8.1Zm5-7.6v1h2.4v7.4h1v-7.5h2.4v-.9h-5.9Zm12.8 2.4v.5h1v-.5a2.4 2.4 0 0 0-1.7-2.4 3.7 3.7 0 0 0-3.3.5l-.6.7a2 2 0 0 0-.2.9v.1c0 .4 0 .7.2 1l.6.6.8.5 1.2.2c.7.1 1.2.3 1.6.5.3.3.5.6.5 1v.1c0 .5-.2.8-.5 1.1-.3.3-.8.4-1.4.4-.7 0-1.3-.1-1.7-.5-.4-.4-.6-1-.6-1.7v-.3h-1v.4c0 .4 0 .8.2 1.2a2.8 2.8 0 0 0 1.6 1.6l1.5.3c.4 0 .9 0 1.2-.2l1-.5.5-.8.2-1v-.1a2 2 0 0 0-.7-1.5c-.4-.4-1-.7-1.9-.8l-1-.2c-.3 0-.5-.2-.7-.3l-.4-.4-.2-.6v-.1c0-.2 0-.4.2-.6l.4-.4.5-.2.7-.1h.8l.6.4.4.5.2.7Zm3.5 7h-.4v.9h.4a4.1 4.1 0 0 0 3.9-2.7 5 5 0 0 0 .4-1.9v-3a4.7 4.7 0 0 0-1.3-3.3l-1.4-1c-.5-.2-1-.3-1.6-.3h-.4v1h.4a3.2 3.2 0 0 1 3 2c.2.5.3 1 .3 1.6v3c0 .5 0 1-.3 1.5-.2.5-.4.9-.7 1.2a3.2 3.2 0 0 1-2.3 1Z" fill="#000"></path>
  <mask id="path-46-outside-2_2330_71496" maskUnits="userSpaceOnUse" x="14" y="185" width="167" height="96" fill="#000">
    <path fill="#fff" d="M14 185h167v96H14z"></path>
    <path fill-rule="evenodd" clip-rule="evenodd" d="M125 187H26a10 10 0 0 0-10 10v72a10 10 0 0 0 10 10h105a10 10 0 0 0 10-10v-38a10 10 0 0 1 10-10h18a10 10 0 0 0 10-10v-14a10 10 0 0 0-10-10h-44Z"></path>
  </mask>
  <path fill-rule="evenodd" clip-rule="evenodd" d="M125 187H26a10 10 0 0 0-10 10v72a10 10 0 0 0 10 10h105a10 10 0 0 0 10-10v-38a10 10 0 0 1 10-10h18a10 10 0 0 0 10-10v-14a10 10 0 0 0-10-10h-44Z" fill="#FBDFDE"></path>
  <path d="M26 188.5h99v-3H26v3ZM17.5 269v-72h-3v72h3Zm113.5 8.5H26v3h105v-3Zm8.5-46.5v38h3v-38h-3Zm29.5-11.5h-18v3h18v-3Zm8.5-22.5v14h3v-14h-3Zm-36.5-8.5h28v-3h-28v3Zm-16 0h16v-3h-16v3Zm55.5 8.5c0-6.4-5.1-11.5-11.5-11.5v3c4.7 0 8.5 3.8 8.5 8.5h3Zm-38 34c0-4.7 3.8-8.5 8.5-8.5v-3c-6.4 0-11.5 5.1-11.5 11.5h3ZM131 280.5c6.4 0 11.5-5.1 11.5-11.5h-3c0 4.7-3.8 8.5-8.5 8.5v3ZM14.5 269c0 6.4 5.1 11.5 11.5 11.5v-3a8.5 8.5 0 0 1-8.5-8.5h-3ZM169 222.5c6.4 0 11.5-5.1 11.5-11.5h-3c0 4.7-3.8 8.5-8.5 8.5v3Zm-143-37c-6.4 0-11.5 5.1-11.5 11.5h3c0-4.7 3.8-8.5 8.5-8.5v-3Z" fill="#000" mask="url(#path-46-outside-2_2330_71496)"></path>
  <g clip-path="url(#clip2_2330_71496)">
		<g data-animate="" data-animate-move-up="" data-animate-stagger="2" class="is-animated">
			<path d="M36.7 279.8c-27.6-8.2-16.9-18.5-8-16.6.4-1.6-.5-1.8-1-3-7.2-12.5 0-16.3 9.6-9.6.9-7.4-4.8-14.7-3.2-22.6.1-3.3 2-6.4 5.1-6.8 8.7 1 12 22 14.5 21.4 4.8-36.9 20.5-33.2 14.9-2.7 2.2.4 4.2-6.7 6.3-7 14.9-4.5 1.7 18.6 2.6 24.3 6.3 0 11.2-2.3 12 5.8-5.3 11.4-20.4 17.4-28.7 19.6 9.3-20.4 11.8-23.4 6.8-25.7-4.3 1.6-7.5 14.1-9.8 13.2-1-7 2.9-22.7-2.2-23.2l-2.5 1.5c-2.4 13.6-1.9 21.9-3.8 22-3.6-3.4-4.2-9.2-9.2-8.4l-1.8 2.9c2 6.3 4.6 12 7.7 17.4l-9.3-2.5Z" fill="#F2BCAA"></path>
			<path d="M60.9 282.6c-5 1.7-10 2.1-14.8-.2a83.4 83.4 0 0 1-7.7-17.4l1.8-3c5.3-.6 5.9 5.8 9.2 8.5 2.5-1.8 2.9-21.4 3.8-22l2.5-1.5c5.6 1.2.8 20.3 2.2 23.1 3.3-1 6.8-13.4 9.8-13.1 7.6 1.6-6.2 21.8-6.8 25.6Z" fill="#F9F5EC"></path>
		</g>
	</g>
	<g clip-path="url(#clip3_2330_71496)">
		<g data-animate="" data-animate-move-up="" data-animate-stagger="4" class="is-animated">
			<path d="M150.2 222.6c-14.2-3.8-8.8-8.2-4.3-7.3.2-.7-.3-.8-.6-1.4-3.7-5.4 0-7 5-4 .3-3.3-2.7-6.4-2-9.9 0-1.5 1-2.8 2.6-3 4.4.6 6.3 9.7 7.6 9.5 2-16 10.2-14.3 7.6-1 1.1.1 2-3 3.1-3 7.6-2 1.1 8 1.6 10.5 3.2.1 5.7-.9 6.2 2.7-2.6 4.9-10.2 7.4-14.4 8.3 4.5-8.8 5.8-10.1 3.2-11.1-2.2.6-3.7 6-5 5.6-.5-3 1.3-9.8-1.3-10l-1.3.6c-1 5.9-.7 9.5-1.7 9.5-1.9-1.5-2.2-4-4.8-3.7l-.9 1.3c1.1 2.7 2.5 5.2 4.2 7.6l-4.8-1.2Z" fill="#CA5769"></path>
			<path d="M162.6 223.4c-2.5.7-5 1-7.5-.2-1.7-2.3-3-4.8-4.1-7.6l1-1.2c2.6-.3 3 2.5 4.6 3.7 1.3-.8 1.3-9.2 1.7-9.5l1.3-.6c2.8.5.6 8.8 1.4 10 1.7-.4 3.3-5.7 4.8-5.6 3.9.7-2.9 9.4-3.2 11Z" fill="#F9F5EC"></path>
		</g>
  </g>
  <g clip-path="url(#clip4_2330_71496)">
		<g data-animate="" data-animate-move-up="" data-animate-stagger="3" class="is-animated">
			<path d="M95.1 282.4s-21.6 6.3-29.6-9.1c0 0-3-2.4 5.1-2.4 0 0-5.3-8.9-3.8-11.5 0 0 .2-2.6 8.7.5 0 0-1.5-8.4.6-11.2 0 0 4.4-6.4 8.3 8v.1h.1c-.1-2.8-.2-9.8 2.2-10.5 0 0 2.4.3 3.7 5 0 0 4.2-12.5 7.2-13.5 0 0 2-1 2.7-.8.8.3.9 2.7.9 2.7s.7 6.6.5 8c0 0 2.7-5 5-5.5 1.2-.4 2.5.3 3 1.4 0 0 .5 4.4.2 5.4 0 0 5.9-4.7 8.3-4.6 0 0 2-.6 3.3 0 0 0 2.1.2 1.8 3.2 0 0-1.2 6.2-1.7 6.9 1.2-.2 2.4.6 2.6 1.7.4 1 .3 2 0 3 0 0-1.6 5.6-4.6 9.3 0 0 3.2 0 4.6 2.1 0 0 1.5 2-1.2 4.4 0 0-15.9 13.7-27.9 7.4Z" fill="#B3CF9C"></path>
			<path d="M95 280.1c-.5 0-1-.3-1.2-.8v-.1c0-.2-4.8-17.8-17-17.9 0 3 .5 11.3 9.8 15.5.6.3.9 1 .6 1.6-.4.6-1.1.9-1.8.6-12.9-5.8-11-18.9-11-19 0-.6.5-1 1.1-1 6.3-.5 12 2.8 16.3 9.5.8 1.2 1.5 2.5 2.1 3.8.4-2 1-3.9 2-5.7 2.6-4.4 7-7.4 12.9-8.8.5-.2 1.1 0 1.4.5.2.3 4.1 7-2.4 17.9-.3.6-1.1.8-1.8.4-.6-.3-.8-1-.4-1.7 4.4-7.5 3.5-12.6 2.8-14.5a16 16 0 0 0-12 18.2c0 .6-.3 1.3-1 1.4l-.3.1Z" fill="#F0EADE"></path>
			<path d="M84 278.1c-.3.2-1.3-.7-2.8-2l-2.7-2c-1-.7-2.2-1.2-3.5-1.6l-2-.7-.5-.2-.6-.2-.8-.3c-1-.4-2.2-.6-3.3-.6-1.3 0-2.6 0-4 .2-1.2.2-2.5 0-2.8-.9-.2-.7.8-1.7 2.4-2 1.5-.2 3-.3 4.6-.2a14.7 14.7 0 0 1 5.3 1.3l.4.2.4.2 2 .8a15.5 15.5 0 0 1 6.5 4.8c1.3 1.7 1.8 3 1.5 3.2ZM97.7 267c-.7 0-1.3-.5-1.3-1.2.2-5.2-4-10.9-6-13.2-3.9 5.6-2.3 10.5-2.2 10.8.2.6-.2 1.2-.9 1.4-.6.2-1.3 0-1.6-.7 0-.3-2.4-7 3.6-14.3.3-.3.6-.4 1-.4s.8 0 1 .4c.4.3 8 8.3 7.7 16.1 0 .7-.6 1.2-1.3 1.2Z" fill="#F0EADE"></path>
			<path d="M98.5 264.4c-.6 0-1.1-.3-1.3-.8-3.7-11.1 7.8-16.6 7.9-16.6.6-.3 1.3 0 1.7.5 4.3 7 .6 12.4.4 12.7-.4.5-1.2.6-1.8.3-.6-.4-.8-1.1-.4-1.7.1-.2 2.6-4 .1-9-2.4 1.5-7.8 5.8-5.4 13l-.1 1c-.2.3-.4.5-.8.6h-.3Z" fill="#F0EADE"></path>
			<path d="M110.4 268.2c-.6 0-1.1-.4-1.3-1-.1-.5 0-1 .6-1.3 0 0 9.1-5.6 8-13-2.3.1-7.4 1-8.7 5-.1.4-.5.8-1 .9-.4 0-.9 0-1.2-.4-.3-.3-.4-.8-.3-1.2 1-3 3.4-5 7-6.1 1.7-.5 3.4-.8 5.2-.8.6 0 1 .4 1.2 1 1.2 4 0 8.2-3.4 12a24.4 24.4 0 0 1-5.4 4.7l-.7.2ZM103.2 280.2c-.2 0-.3-.4 0-1 .3-.9.7-1.7 1.3-2.3a39.7 39.7 0 0 1 7.5-7.2 17.6 17.6 0 0 1 6.2-2.3c1.6-.3 3.2-.5 4.8-.5 1.6 0 2.9.8 2.8 1.6 0 .8-1.3 1.4-2.8 1.5-1.4 0-2.8 0-4.2.3a16.5 16.5 0 0 0-6.9 3c-2.2 1.5-4.3 3.4-6 4.8l-1.8 1.6c-.4.4-.7.6-1 .5Z" fill="#F0EADE"></path>
		</g>
  </g>
  <defs>
    <clipPath id="clip0_2330_71496">
      <path fill="#fff" d="M218 53h50v52h-50z"></path>
    </clipPath>
    <clipPath id="clip1_2330_71496">
      <rect x="296" y="75" width="62" height="88" rx="12" fill="#fff"></rect>
    </clipPath>
    <clipPath id="clip2_2330_71496">
      <path fill="#fff" d="M19 216h70v63H19z"></path>
    </clipPath>
    <clipPath id="clip3_2330_71496">
      <path fill="#fff" d="M133 183h51v38h-51z"></path>
    </clipPath>
    <clipPath id="clip4_2330_71496">
      <path fill="#fff" d="M61 228h77.1v51H61z"></path>
    </clipPath>
  </defs>
</svg>